<svg width="1430" height="287" viewBox="0 0 1430 287" fill="none" xmlns="http://www.w3.org/2000/svg">
<g clip-path="url(#clip0_401_609)">
<rect width="1440" height="296" transform="translate(0 -9)" fill="#0B1B2B"/>
<g filter="url(#filter0_f_401_609)">
<circle cx="-12" cy="13" r="118" fill="#14589C"/>
</g>
<g filter="url(#filter1_f_401_609)">
<circle cx="1355.07" cy="33.9365" r="77.6256" transform="rotate(15 1355.07 33.9365)" fill="#14589C"/>
</g>
<rect x="212" y="116" width="69" height="3" rx="1.5" fill="#1562AF" fill-opacity="0.14"/>
<rect x="99" y="116" width="106" height="3" rx="1.5" fill="#1562AF" fill-opacity="0.14"/>
<rect y="116" width="92" height="3" rx="1.5" fill="#1562AF" fill-opacity="0.14"/>
<rect x="287" y="116" width="77" height="3" rx="1.5" fill="#1562AF" fill-opacity="0.34"/>
<rect x="328" y="127" width="36" height="3" rx="1.5" fill="#1562AF" fill-opacity="0.14"/>
<rect x="184" y="127" width="137" height="3" rx="1.5" fill="#1562AF" fill-opacity="0.14"/>
<rect x="72" y="127" width="105" height="3" rx="1.5" fill="#1562AF" fill-opacity="0.34"/>
<rect y="127" width="65" height="3" rx="1.5" fill="#1562AF" fill-opacity="0.14"/>
<rect y="61" width="144" height="3" rx="1.5" fill="#1562AF" fill-opacity="0.14"/>
<rect x="151" y="61" width="136" height="3" rx="1.5" fill="#1562AF" fill-opacity="0.34"/>
<rect width="46" height="3" rx="1.5" transform="matrix(-1 0 0 1 340 61)" fill="#1562AF" fill-opacity="0.14"/>
<rect x="122" y="72" width="111" height="3" rx="1.5" fill="#1562AF" fill-opacity="0.14"/>
<rect x="122" y="213" width="111" height="3" rx="1.5" fill="#1562AF" fill-opacity="0.14"/>
<rect y="72" width="115" height="3" rx="1.5" fill="#1562AF" fill-opacity="0.34"/>
<rect y="213" width="115" height="3" rx="1.5" fill="#1562AF" fill-opacity="0.34"/>
<rect x="275" y="72" width="28" height="3" rx="1.5" fill="#1562AF" fill-opacity="0.34"/>
<rect x="240" y="72" width="28" height="3" rx="1.5" fill="#1562AF" fill-opacity="0.14"/>
<rect x="240" y="213" width="37" height="3" rx="1.5" fill="#1562AF" fill-opacity="0.14"/>
<rect x="310" y="72" width="83" height="3" rx="1.5" fill="#1562AF" fill-opacity="0.14"/>
<rect x="284" y="83" width="89" height="3" rx="1.5" fill="#1562AF" fill-opacity="0.14"/>
<rect x="284" y="224" width="19" height="3" rx="1.5" fill="#1562AF" fill-opacity="0.14"/>
<rect x="134" y="83" width="143" height="3" rx="1.5" fill="#1562AF" fill-opacity="0.34"/>
<rect x="134" y="224" width="143" height="3" rx="1.5" fill="#1562AF" fill-opacity="0.34"/>
<rect x="95" y="83" width="32" height="3" rx="1.5" fill="#1562AF" fill-opacity="0.14"/>
<rect x="95" y="224" width="32" height="3" rx="1.5" fill="#1562AF" fill-opacity="0.14"/>
<rect y="83" width="88" height="3" rx="1.5" fill="#1562AF" fill-opacity="0.14"/>
<rect y="224" width="88" height="3" rx="1.5" fill="#1562AF" fill-opacity="0.14"/>
<rect x="349" y="94" width="60" height="3" rx="1.5" fill="#1562AF" fill-opacity="0.34"/>
<rect x="201" y="94" width="142" height="3" rx="1.5" fill="#1562AF" fill-opacity="0.14"/>
<rect x="201" y="235" width="51" height="3" rx="1.5" fill="#1562AF" fill-opacity="0.14"/>
<rect x="259" y="235" width="62" height="3" rx="1.5" fill="#1562AF" fill-opacity="0.34"/>
<rect x="163" y="94" width="31" height="3" rx="1.5" fill="#1562AF" fill-opacity="0.14"/>
<rect x="106" y="94" width="51" height="3" rx="1.5" fill="#1562AF" fill-opacity="0.14"/>
<rect x="106" y="235" width="88" height="3" rx="1.5" fill="#1562AF" fill-opacity="0.14"/>
<rect x="32" y="94" width="67" height="3" rx="1.5" fill="#1562AF" fill-opacity="0.34"/>
<rect y="235" width="99" height="3" rx="1.5" fill="#1562AF" fill-opacity="0.34"/>
<rect y="94" width="25" height="3" rx="1.5" fill="#1562AF" fill-opacity="0.14"/>
<rect y="105" width="72" height="3" rx="1.5" fill="#1562AF" fill-opacity="0.34"/>
<rect y="246" width="72" height="3" rx="1.5" fill="#1562AF" fill-opacity="0.14"/>
<rect x="79" y="105" width="97" height="3" rx="1.5" fill="#1562AF" fill-opacity="0.14"/>
<rect x="79" y="246" width="55" height="3" rx="1.5" fill="#1562AF" fill-opacity="0.34"/>
<rect width="61" height="3" rx="1.5" transform="matrix(-1 0 0 1 1250 188)" fill="#1562AF" fill-opacity="0.14"/>
<rect width="94" height="3" rx="1.5" transform="matrix(-1 0 0 1 1350 188)" fill="#1562AF" fill-opacity="0.34"/>
<rect width="82" height="3" rx="1.5" transform="matrix(-1 0 0 1 1438 188)" fill="#1562AF" fill-opacity="0.14"/>
<rect width="68" height="3" rx="1.5" transform="matrix(-1 0 0 1 1183 188)" fill="#1562AF" fill-opacity="0.34"/>
<rect width="42" height="3" rx="1.5" transform="matrix(-1 0 0 1 1109 199)" fill="#1562AF" fill-opacity="0.34"/>
<rect width="32" height="3" rx="1.5" transform="matrix(-1 0 0 1 1147 199)" fill="#1562AF" fill-opacity="0.14"/>
<rect width="122" height="3" rx="1.5" transform="matrix(-1 0 0 1 1275 199)" fill="#1562AF" fill-opacity="0.14"/>
<rect width="93" height="3" rx="1.5" transform="matrix(-1 0 0 1 1374 199)" fill="#1562AF" fill-opacity="0.14"/>
<rect width="58" height="3" rx="1.5" transform="matrix(-1 0 0 1 1438 199)" fill="#1562AF" fill-opacity="0.34"/>
<rect width="118" height="3" rx="1.5" transform="matrix(-1 0 0 1 1438 21)" fill="#1562AF" fill-opacity="0.14"/>
<rect width="128" height="3" rx="1.5" transform="matrix(-1 0 0 1 1438 210)" fill="#1562AF" fill-opacity="0.14"/>
<rect width="112" height="3" rx="1.5" transform="matrix(-1 0 0 1 1314 21)" fill="#1562AF" fill-opacity="0.34"/>
<rect width="121" height="3" rx="1.5" transform="matrix(-1 0 0 1 1257 210)" fill="#1562AF" fill-opacity="0.14"/>
<rect x="1158" y="21" width="38" height="3" rx="1.5" fill="#1562AF" fill-opacity="0.14"/>
<rect x="1263" y="210" width="41" height="3" rx="1.5" fill="#1562AF" fill-opacity="0.34"/>
<rect width="92" height="3" rx="1.5" transform="matrix(-1 0 0 1 1338 32)" fill="#1562AF" fill-opacity="0.14"/>
<rect width="99" height="3" rx="1.5" transform="matrix(-1 0 0 1 1330 221)" fill="#1562AF" fill-opacity="0.14"/>
<rect width="94" height="3" rx="1.5" transform="matrix(-1 0 0 1 1438 32)" fill="#1562AF" fill-opacity="0.34"/>
<rect width="102" height="3" rx="1.5" transform="matrix(-1 0 0 1 1438 221)" fill="#1562AF" fill-opacity="0.34"/>
<rect width="23" height="3" rx="1.5" transform="matrix(-1 0 0 1 1212 32)" fill="#1562AF" fill-opacity="0.34"/>
<rect width="23" height="3" rx="1.5" transform="matrix(-1 0 0 1 1241 32)" fill="#1562AF" fill-opacity="0.14"/>
<rect width="62" height="3" rx="1.5" transform="matrix(-1 0 0 1 1225 221)" fill="#1562AF" fill-opacity="0.34"/>
<rect width="68" height="3" rx="1.5" transform="matrix(-1 0 0 1 1183 32)" fill="#1562AF" fill-opacity="0.14"/>
<rect width="79" height="3" rx="1.5" transform="matrix(-1 0 0 1 1186 75)" fill="#1562AF" fill-opacity="0.14"/>
<rect width="79" height="3" rx="1.5" transform="matrix(-1 0 0 1 1186 232)" fill="#1562AF" fill-opacity="0.34"/>
<rect width="127" height="3" rx="1.5" transform="matrix(-1 0 0 1 1319 75)" fill="#1562AF" fill-opacity="0.14"/>
<rect width="127" height="3" rx="1.5" transform="matrix(-1 0 0 1 1319 232)" fill="#1562AF" fill-opacity="0.14"/>
<rect width="29" height="3" rx="1.5" transform="matrix(-1 0 0 1 1354 75)" fill="#1562AF" fill-opacity="0.34"/>
<rect width="29" height="3" rx="1.5" transform="matrix(-1 0 0 1 1354 232)" fill="#1562AF" fill-opacity="0.34"/>
<rect width="78" height="3" rx="1.5" transform="matrix(-1 0 0 1 1438 75)" fill="#1562AF" fill-opacity="0.14"/>
<rect width="78" height="3" rx="1.5" transform="matrix(-1 0 0 1 1438 232)" fill="#1562AF" fill-opacity="0.14"/>
<rect width="53" height="3" rx="1.5" transform="matrix(-1 0 0 1 1128 86)" fill="#1562AF" fill-opacity="0.34"/>
<rect width="53" height="3" rx="1.5" transform="matrix(-1 0 0 1 1128 243)" fill="#1562AF" fill-opacity="0.14"/>
<rect width="126" height="3" rx="1.5" transform="matrix(-1 0 0 1 1260 86)" fill="#1562AF" fill-opacity="0.14"/>
<rect width="126" height="3" rx="1.5" transform="matrix(-1 0 0 1 1260 243)" fill="#1562AF" fill-opacity="0.14"/>
<rect width="27" height="3" rx="1.5" transform="matrix(-1 0 0 1 1293 86)" fill="#1562AF" fill-opacity="0.34"/>
<rect width="45" height="3" rx="1.5" transform="matrix(-1 0 0 1 1344 86)" fill="#1562AF" fill-opacity="0.14"/>
<rect width="78" height="3" rx="1.5" transform="matrix(-1 0 0 1 1344 243)" fill="#1562AF" fill-opacity="0.34"/>
<rect width="60" height="3" rx="1.5" transform="matrix(-1 0 0 1 1410 86)" fill="#1562AF" fill-opacity="0.14"/>
<rect width="88" height="3" rx="1.5" transform="matrix(-1 0 0 1 1438 243)" fill="#1562AF" fill-opacity="0.14"/>
<rect width="22" height="3" rx="1.5" transform="matrix(-1 0 0 1 1438 86)" fill="#1562AF" fill-opacity="0.14"/>
<rect width="64" height="3" rx="1.5" transform="matrix(-1 0 0 1 1438 97)" fill="#1562AF" fill-opacity="0.34"/>
<rect width="64" height="3" rx="1.5" transform="matrix(-1 0 0 1 1438 254)" fill="#1562AF" fill-opacity="0.34"/>
<rect width="86" height="3" rx="1.5" transform="matrix(-1 0 0 1 1368 97)" fill="#1562AF" fill-opacity="0.14"/>
<rect width="154" height="3" rx="1.5" transform="matrix(-1 0 0 1 1368 254)" fill="#1562AF" fill-opacity="0.14"/>
<g filter="url(#filter2_f_401_609)">
<rect x="272" y="226" width="891" height="52" fill="#14589C"/>
</g>
<g clip-path="url(#clip1_401_609)">
<path d="M716.235 73.7646L716.235 73.7647C716.919 74.4483 716.919 75.5516 716.235 76.2353L716.235 76.2353L701.238 91.2353C700.554 91.9189 699.446 91.9189 698.763 91.2353C698.079 90.5517 698.079 89.4483 698.763 88.7646L698.763 88.7646L711.991 75.5302L712.521 74.9999L711.991 74.4697L698.763 61.2377C698.763 61.2377 698.763 61.2377 698.763 61.2377C698.079 60.5541 698.079 59.4462 698.762 58.7625C698.762 58.7625 698.762 58.7625 698.762 58.7624C698.762 58.7624 698.763 58.7623 698.763 58.7623C699.446 58.0795 700.554 58.0795 701.238 58.7625C701.238 58.7625 701.238 58.7625 701.238 58.7626L716.235 73.7646ZM740 88.25C740.969 88.25 741.75 89.0314 741.75 90C741.75 90.9686 740.969 91.75 740 91.75H717.5C716.531 91.75 715.75 90.9686 715.75 90C715.75 89.0314 716.531 88.25 717.5 88.25H740Z" stroke="#3294F8" stroke-width="1.5"/>
</g>
<path d="M660.484 133.27V140.758C659.375 141.773 657.129 142.281 653.746 142.281C653.082 142.281 652.496 142.254 651.988 142.199C651.488 142.145 651.027 142.074 650.605 141.988C650.191 141.902 649.836 141.758 649.539 141.555C649.242 141.344 648.98 141.133 648.754 140.922C648.527 140.711 648.344 140.406 648.203 140.008C648.062 139.602 647.945 139.211 647.852 138.836C647.766 138.461 647.699 137.957 647.652 137.324C647.613 136.691 647.586 136.086 647.57 135.508C647.555 134.93 647.547 134.188 647.547 133.281C647.547 132.508 647.551 131.848 647.559 131.301C647.574 130.754 647.602 130.195 647.641 129.625C647.688 129.055 647.746 128.582 647.816 128.207C647.895 127.824 647.996 127.441 648.121 127.059C648.254 126.668 648.406 126.355 648.578 126.121C648.75 125.879 648.965 125.641 649.223 125.406C649.48 125.172 649.766 124.992 650.078 124.867C650.398 124.742 650.77 124.629 651.191 124.527C651.613 124.426 652.074 124.359 652.574 124.328C653.074 124.289 653.641 124.27 654.273 124.27C654.312 124.27 654.371 124.27 654.449 124.27C654.996 124.27 655.41 124.273 655.691 124.281C655.973 124.289 656.352 124.32 656.828 124.375C657.312 124.422 657.684 124.5 657.941 124.609C658.199 124.711 658.496 124.867 658.832 125.078C659.168 125.281 659.418 125.535 659.582 125.84C659.746 126.137 659.891 126.516 660.016 126.977C660.141 127.438 660.203 127.969 660.203 128.57C660.203 128.711 660.195 128.906 660.18 129.156L658.082 129.555L657.953 127.246C657.938 126.746 657.652 126.426 657.098 126.285C656.543 126.137 655.492 126.062 653.945 126.062C652.891 126.062 652.094 126.129 651.555 126.262C651.016 126.387 650.641 126.582 650.43 126.848C650.219 127.113 650.09 127.508 650.043 128.031C649.973 129.633 649.938 131.273 649.938 132.953C649.938 134.641 649.973 136.281 650.043 137.875C650.082 138.719 650.148 139.266 650.242 139.516C650.391 139.898 650.73 140.156 651.262 140.289C651.762 140.414 652.633 140.477 653.875 140.477C656.547 140.477 658.027 140.297 658.316 139.938C658.309 139.133 658.305 137.5 658.305 135.039H655.352L655.152 133.27H660.484ZM666.426 142H664.047V124.539H666.426V142ZM679.891 126.344H675.332V142H672.953V126.344H668.488V124.539H679.891V126.344ZM694.445 142H692.066V133.984H684.262V142H681.883V124.539H684.262V132.133H692.066V124.539H694.445V142ZM711.355 124.539V135.473C711.355 136.41 711.312 137.215 711.227 137.887C711.148 138.559 711.004 139.156 710.793 139.68C710.582 140.195 710.316 140.617 709.996 140.945C709.684 141.266 709.27 141.531 708.754 141.742C708.246 141.945 707.676 142.086 707.043 142.164C706.41 142.242 705.645 142.281 704.746 142.281C703.879 142.281 703.141 142.246 702.531 142.176C701.922 142.105 701.359 141.977 700.844 141.789C700.328 141.594 699.91 141.34 699.59 141.027C699.277 140.707 699.008 140.293 698.781 139.785C698.555 139.27 698.395 138.664 698.301 137.969C698.215 137.273 698.172 136.441 698.172 135.473V124.539H700.551V135.777C700.551 136.426 700.551 136.895 700.551 137.184C700.559 137.473 700.582 137.828 700.621 138.25C700.66 138.664 700.711 138.949 700.773 139.105C700.836 139.254 700.938 139.441 701.078 139.668C701.227 139.895 701.391 140.039 701.57 140.102C701.758 140.156 702.012 140.227 702.332 140.312C702.652 140.398 702.996 140.449 703.363 140.465C703.738 140.473 704.203 140.477 704.758 140.477C705.414 140.477 705.961 140.457 706.398 140.418C706.844 140.379 707.23 140.301 707.559 140.184C707.887 140.066 708.137 139.934 708.309 139.785C708.488 139.629 708.629 139.402 708.73 139.105C708.84 138.809 708.91 138.5 708.941 138.18C708.973 137.859 708.988 137.434 708.988 136.902L708.977 124.539H711.355ZM727.398 136.973C727.391 137.465 727.371 137.898 727.34 138.273C727.316 138.641 727.273 138.988 727.211 139.316C727.148 139.645 727.082 139.922 727.012 140.148C726.941 140.375 726.828 140.59 726.672 140.793C726.523 140.988 726.379 141.148 726.238 141.273C726.098 141.391 725.895 141.5 725.629 141.602C725.371 141.695 725.121 141.766 724.879 141.812C724.637 141.859 724.312 141.898 723.906 141.93C723.508 141.961 723.121 141.98 722.746 141.988C722.379 141.996 721.914 142 721.352 142H715.094V124.539H721.727C722.609 124.539 723.34 124.586 723.918 124.68C724.504 124.766 725.02 124.926 725.465 125.16C725.918 125.395 726.246 125.727 726.449 126.156C726.652 126.586 726.758 127.133 726.766 127.797L726.777 129.062C726.777 129.594 726.758 130.027 726.719 130.363C726.68 130.699 726.609 131.004 726.508 131.277C726.414 131.551 726.27 131.766 726.074 131.922C725.879 132.078 725.641 132.211 725.359 132.32C725.086 132.422 724.73 132.512 724.293 132.59C724.824 132.645 725.281 132.762 725.664 132.941C726.047 133.121 726.348 133.336 726.566 133.586C726.793 133.836 726.969 134.152 727.094 134.535C727.219 134.918 727.301 135.293 727.34 135.66C727.379 136.027 727.398 136.465 727.398 136.973ZM724.457 128.559C724.457 128.543 724.457 128.52 724.457 128.488C724.457 128.16 724.457 127.93 724.457 127.797C724.457 127.656 724.434 127.488 724.387 127.293C724.348 127.09 724.305 126.957 724.258 126.895C724.219 126.832 724.121 126.75 723.965 126.648C723.816 126.539 723.668 126.477 723.52 126.461C723.371 126.438 723.137 126.41 722.816 126.379C722.504 126.34 722.191 126.32 721.879 126.32C721.566 126.32 721.141 126.32 720.602 126.32H717.449V131.922H719.805C720.828 131.922 721.656 131.895 722.289 131.84C722.922 131.777 723.391 131.676 723.695 131.535C724.008 131.387 724.211 131.23 724.305 131.066C724.406 130.902 724.457 130.684 724.457 130.41V128.559ZM725.078 136.41C725.062 135.48 725.027 134.895 724.973 134.652C724.863 134.223 724.594 133.93 724.164 133.773C723.633 133.57 722.445 133.465 720.602 133.457C720.477 133.457 720.34 133.457 720.191 133.457H717.449V140.23H721.926C722.832 140.23 723.516 140.156 723.977 140.008C724.438 139.852 724.742 139.621 724.891 139.316C725.039 139.012 725.109 138.562 725.102 137.969L725.078 136.41ZM747.555 136.973C747.547 137.465 747.527 137.898 747.496 138.273C747.473 138.641 747.43 138.988 747.367 139.316C747.305 139.645 747.238 139.922 747.168 140.148C747.098 140.375 746.984 140.59 746.828 140.793C746.68 140.988 746.535 141.148 746.395 141.273C746.254 141.391 746.051 141.5 745.785 141.602C745.527 141.695 745.277 141.766 745.035 141.812C744.793 141.859 744.469 141.898 744.062 141.93C743.664 141.961 743.277 141.98 742.902 141.988C742.535 141.996 742.07 142 741.508 142H735.25V124.539H741.883C742.766 124.539 743.496 124.586 744.074 124.68C744.66 124.766 745.176 124.926 745.621 125.16C746.074 125.395 746.402 125.727 746.605 126.156C746.809 126.586 746.914 127.133 746.922 127.797L746.934 129.062C746.934 129.594 746.914 130.027 746.875 130.363C746.836 130.699 746.766 131.004 746.664 131.277C746.57 131.551 746.426 131.766 746.23 131.922C746.035 132.078 745.797 132.211 745.516 132.32C745.242 132.422 744.887 132.512 744.449 132.59C744.98 132.645 745.438 132.762 745.82 132.941C746.203 133.121 746.504 133.336 746.723 133.586C746.949 133.836 747.125 134.152 747.25 134.535C747.375 134.918 747.457 135.293 747.496 135.66C747.535 136.027 747.555 136.465 747.555 136.973ZM744.613 128.559C744.613 128.543 744.613 128.52 744.613 128.488C744.613 128.16 744.613 127.93 744.613 127.797C744.613 127.656 744.59 127.488 744.543 127.293C744.504 127.09 744.461 126.957 744.414 126.895C744.375 126.832 744.277 126.75 744.121 126.648C743.973 126.539 743.824 126.477 743.676 126.461C743.527 126.438 743.293 126.41 742.973 126.379C742.66 126.34 742.348 126.32 742.035 126.32C741.723 126.32 741.297 126.32 740.758 126.32H737.605V131.922H739.961C740.984 131.922 741.812 131.895 742.445 131.84C743.078 131.777 743.547 131.676 743.852 131.535C744.164 131.387 744.367 131.23 744.461 131.066C744.562 130.902 744.613 130.684 744.613 130.41V128.559ZM745.234 136.41C745.219 135.48 745.184 134.895 745.129 134.652C745.02 134.223 744.75 133.93 744.32 133.773C743.789 133.57 742.602 133.465 740.758 133.457C740.633 133.457 740.496 133.457 740.348 133.457H737.605V140.23H742.082C742.988 140.23 743.672 140.156 744.133 140.008C744.594 139.852 744.898 139.621 745.047 139.316C745.195 139.012 745.266 138.562 745.258 137.969L745.234 136.41ZM759.59 142H750.719V124.539H753.098V140.207H759.824L759.59 142ZM768.812 142.281C768.133 142.281 767.527 142.266 766.996 142.234C766.473 142.203 765.988 142.125 765.543 142C765.098 141.883 764.715 141.773 764.395 141.672C764.082 141.57 763.797 141.379 763.539 141.098C763.289 140.809 763.082 140.562 762.918 140.359C762.754 140.148 762.613 139.805 762.496 139.328C762.379 138.844 762.293 138.434 762.238 138.098C762.184 137.754 762.137 137.227 762.098 136.516C762.066 135.805 762.047 135.195 762.039 134.688C762.039 134.18 762.039 133.445 762.039 132.484C762.039 131.328 762.07 130.367 762.133 129.602C762.195 128.836 762.316 128.125 762.496 127.469C762.684 126.812 762.926 126.297 763.223 125.922C763.527 125.547 763.938 125.227 764.453 124.961C764.977 124.688 765.582 124.504 766.27 124.41C766.965 124.309 767.812 124.258 768.812 124.258C769.758 124.258 770.566 124.305 771.238 124.398C771.91 124.492 772.504 124.66 773.02 124.902C773.543 125.137 773.961 125.434 774.273 125.793C774.594 126.145 774.855 126.609 775.059 127.188C775.262 127.766 775.398 128.414 775.469 129.133C775.547 129.844 775.586 130.711 775.586 131.734C775.586 134.625 775.543 136.527 775.457 137.441C775.309 139.004 774.949 140.121 774.379 140.793C773.777 141.512 772.754 141.965 771.309 142.152C770.621 142.238 769.789 142.281 768.812 142.281ZM770.488 126.109C770.043 126.078 769.484 126.062 768.812 126.062C768.141 126.062 767.582 126.078 767.137 126.109C766.691 126.141 766.301 126.207 765.965 126.309C765.637 126.41 765.383 126.523 765.203 126.648C765.023 126.773 764.875 126.969 764.758 127.234C764.648 127.492 764.574 127.758 764.535 128.031C764.504 128.305 764.48 128.676 764.465 129.145C764.441 130.59 764.43 132.043 764.43 133.504C764.43 135.707 764.488 137.215 764.605 138.027C764.793 139.246 765.148 139.949 765.672 140.137C766.062 140.363 767.109 140.477 768.812 140.477C770.516 140.477 771.562 140.363 771.953 140.137C772.102 140.082 772.234 139.992 772.352 139.867C772.477 139.742 772.578 139.574 772.656 139.363C772.742 139.152 772.816 138.941 772.879 138.73C772.941 138.512 772.992 138.234 773.031 137.898C773.07 137.562 773.102 137.262 773.125 136.996C773.148 136.723 773.164 136.379 773.172 135.965C773.18 135.543 773.184 135.195 773.184 134.922C773.191 134.648 773.195 134.285 773.195 133.832C773.195 132.254 773.184 130.691 773.16 129.145C773.145 128.676 773.117 128.305 773.078 128.031C773.047 127.758 772.973 127.492 772.855 127.234C772.746 126.969 772.602 126.773 772.422 126.648C772.242 126.523 771.984 126.41 771.648 126.309C771.32 126.207 770.934 126.141 770.488 126.109ZM791.617 133.27V140.758C790.508 141.773 788.262 142.281 784.879 142.281C784.215 142.281 783.629 142.254 783.121 142.199C782.621 142.145 782.16 142.074 781.738 141.988C781.324 141.902 780.969 141.758 780.672 141.555C780.375 141.344 780.113 141.133 779.887 140.922C779.66 140.711 779.477 140.406 779.336 140.008C779.195 139.602 779.078 139.211 778.984 138.836C778.898 138.461 778.832 137.957 778.785 137.324C778.746 136.691 778.719 136.086 778.703 135.508C778.688 134.93 778.68 134.188 778.68 133.281C778.68 132.508 778.684 131.848 778.691 131.301C778.707 130.754 778.734 130.195 778.773 129.625C778.82 129.055 778.879 128.582 778.949 128.207C779.027 127.824 779.129 127.441 779.254 127.059C779.387 126.668 779.539 126.355 779.711 126.121C779.883 125.879 780.098 125.641 780.355 125.406C780.613 125.172 780.898 124.992 781.211 124.867C781.531 124.742 781.902 124.629 782.324 124.527C782.746 124.426 783.207 124.359 783.707 124.328C784.207 124.289 784.773 124.27 785.406 124.27C785.445 124.27 785.504 124.27 785.582 124.27C786.129 124.27 786.543 124.273 786.824 124.281C787.105 124.289 787.484 124.32 787.961 124.375C788.445 124.422 788.816 124.5 789.074 124.609C789.332 124.711 789.629 124.867 789.965 125.078C790.301 125.281 790.551 125.535 790.715 125.84C790.879 126.137 791.023 126.516 791.148 126.977C791.273 127.438 791.336 127.969 791.336 128.57C791.336 128.711 791.328 128.906 791.312 129.156L789.215 129.555L789.086 127.246C789.07 126.746 788.785 126.426 788.23 126.285C787.676 126.137 786.625 126.062 785.078 126.062C784.023 126.062 783.227 126.129 782.688 126.262C782.148 126.387 781.773 126.582 781.562 126.848C781.352 127.113 781.223 127.508 781.176 128.031C781.105 129.633 781.07 131.273 781.07 132.953C781.07 134.641 781.105 136.281 781.176 137.875C781.215 138.719 781.281 139.266 781.375 139.516C781.523 139.898 781.863 140.156 782.395 140.289C782.895 140.414 783.766 140.477 785.008 140.477C787.68 140.477 789.16 140.297 789.449 139.938C789.441 139.133 789.438 137.5 789.438 135.039H786.484L786.285 133.27H791.617Z" fill="#3294F8"/>
</g>
<defs>
<filter id="filter0_f_401_609" x="-530" y="-505" width="1036" height="1036" filterUnits="userSpaceOnUse" color-interpolation-filters="sRGB">
<feFlood flood-opacity="0" result="BackgroundImageFix"/>
<feBlend mode="normal" in="SourceGraphic" in2="BackgroundImageFix" result="shape"/>
<feGaussianBlur stdDeviation="200" result="effect1_foregroundBlur_401_609"/>
</filter>
<filter id="filter1_f_401_609" x="909.427" y="-411.708" width="891.29" height="891.29" filterUnits="userSpaceOnUse" color-interpolation-filters="sRGB">
<feFlood flood-opacity="0" result="BackgroundImageFix"/>
<feBlend mode="normal" in="SourceGraphic" in2="BackgroundImageFix" result="shape"/>
<feGaussianBlur stdDeviation="184" result="effect1_foregroundBlur_401_609"/>
</filter>
<filter id="filter2_f_401_609" x="60" y="14" width="1315" height="476" filterUnits="userSpaceOnUse" color-interpolation-filters="sRGB">
<feFlood flood-opacity="0" result="BackgroundImageFix"/>
<feBlend mode="normal" in="SourceGraphic" in2="BackgroundImageFix" result="shape"/>
<feGaussianBlur stdDeviation="106" result="effect1_foregroundBlur_401_609"/>
</filter>
<clipPath id="clip0_401_609">
<rect width="1440" height="296" fill="white" transform="translate(0 -9)"/>
</clipPath>
<clipPath id="clip1_401_609">
<rect width="45" height="40" fill="white" transform="translate(697.5 55)"/>
</clipPath>
</defs>
</svg>
